<svg width="134" height="58" viewBox="0 0 134 58" fill="none" xmlns="http://www.w3.org/2000/svg">
<path d="M67.5 36C67.5 42.2485 62.0102 47.5 55 47.5C47.9898 47.5 42.5 42.2485 42.5 36C42.5 29.7515 47.9898 24.5 55 24.5C62.0102 24.5 67.5 29.7515 67.5 36Z" stroke="#ffffff" stroke-width="3" fill="#537953"/>
<path d="M110.5 36C110.5 42.2984 105.181 47.5 98.5 47.5C91.8187 47.5 86.5 42.2984 86.5 36C86.5 29.7016 91.8187 24.5 98.5 24.5C105.181 24.5 110.5 29.7016 110.5 36Z" stroke="#ffffff" stroke-width="3" fill="#537953"/>
<path d="M55 31L62.625 16.5M81.75 2H70.25L62.625 16.5M62.625 16.5H93.5L98 31" stroke="#ffffff" stroke-width="3" stroke-linecap="round" fill="#537953"/>
<path fill-rule="evenodd" clip-rule="evenodd" d="M47.594 17.7817C46.1935 17.7771 44.7609 17.9275 43.3204 18.2494C34.3874 20.2455 29.047 27.9635 30.4721 35.5168L28.3673 35.086C27.1745 26.6112 33.2915 18.4429 42.8039 16.3173C44.1047 16.0266 45.4063 15.863 46.6922 15.8176L47.594 17.7817Z" fill="#ffffff"/>
<path d="M47.594 17.7817L47.6109 18.2769L48.3685 18.2794L48.053 17.5923L47.594 17.7817ZM30.4721 35.5168L30.3865 36.0014L31.101 36.1476L30.9683 35.444L30.4721 35.5168ZM28.3673 35.086L27.8673 35.136L27.918 35.4962L28.2817 35.5706L28.3673 35.086ZM42.8039 16.3173L42.6748 15.8342L42.8039 16.3173ZM46.6922 15.8176L47.1511 15.6281L47.0052 15.3104L46.6556 15.3227L46.6922 15.8176ZM47.5772 17.2865C46.1386 17.2818 44.6683 17.4363 43.1913 17.7664L43.4495 18.7325C44.8534 18.4188 46.2483 18.2724 47.6109 18.2769L47.5772 17.2865ZM43.1913 17.7664C34.0426 19.8107 28.4952 27.7419 29.9758 35.5895L30.9683 35.444C29.5988 28.1851 34.7323 20.6804 43.4495 18.7325L43.1913 17.7664ZM30.5577 35.0321L28.4528 34.6014L28.2817 35.5706L30.3865 36.0014L30.5577 35.0321ZM42.6748 15.8342C32.9531 18.0066 26.6344 26.376 27.8673 35.136L28.8672 35.036C27.7146 26.8465 33.6298 18.8792 42.933 16.8003L42.6748 15.8342ZM46.6556 15.3227C45.3385 15.3692 44.006 15.5368 42.6748 15.8342L42.933 16.8003C44.2035 16.5164 45.4741 16.3567 46.7288 16.3124L46.6556 15.3227ZM46.2332 16.007L47.1351 17.9712L48.053 17.5923L47.1511 15.6281L46.2332 16.007Z" fill="#ffffff"/>
<path fill-rule="evenodd" clip-rule="evenodd" d="M44.8976 11.978C42.9936 12.0653 41.0422 12.3208 39.0749 12.7603C32.3807 14.2556 26.9254 17.5635 23.4901 21.6078C20.4114 25.2323 19.0203 29.3476 19.6026 33.3025L17.541 33.0306C16.4604 23.4257 25.3799 13.7719 38.5585 10.8281C40.3607 10.4255 42.1555 10.1678 43.9211 10.0459L44.8976 11.978Z" fill="#ffffff"/>
<path d="M44.8976 11.978L44.9396 12.4727L45.6854 12.4385L45.3482 11.7713L44.8976 11.978ZM23.4901 21.6078L23.0975 21.2827L23.4901 21.6078ZM19.6026 33.3025L19.5535 33.7932L20.1947 33.8778L20.1022 33.2494L19.6026 33.3025ZM17.541 33.0306L17.0393 33.067L17.0844 33.4676L17.4919 33.5214L17.541 33.0306ZM43.9211 10.0459L44.3717 9.8392L44.2145 9.52801L43.8674 9.55197L43.9211 10.0459ZM44.8556 11.4834C42.922 11.572 40.9415 11.8314 38.9458 12.2772L39.204 13.2433C41.1429 12.8102 43.0651 12.5586 44.9396 12.4727L44.8556 11.4834ZM38.9458 12.2772C32.1588 13.7933 26.607 17.1509 23.0975 21.2827L23.8827 21.933C27.2438 17.976 32.6026 14.7179 39.204 13.2433L38.9458 12.2772ZM23.0975 21.2827C19.9523 24.9855 18.4961 29.2329 19.1031 33.3556L20.1022 33.2494C19.5445 29.4622 20.8705 25.4792 23.8827 21.933L23.0975 21.2827ZM19.6518 32.8117L17.5902 32.5399L17.4919 33.5214L19.5535 33.7932L19.6518 32.8117ZM38.4294 10.345C25.1259 13.3168 15.9197 23.1156 17.0393 33.067L18.0427 32.9942C17.0011 23.7358 25.6338 14.2271 38.6876 11.3111L38.4294 10.345ZM43.8674 9.55197C42.0762 9.67561 40.2562 9.93694 38.4294 10.345L38.6876 11.3111C40.4651 10.914 42.2347 10.6601 43.9749 10.5399L43.8674 9.55197ZM43.4705 10.2527L44.447 12.1848L45.3482 11.7713L44.3717 9.8392L43.4705 10.2527Z" fill="#ffffff"/>
<path fill-rule="evenodd" clip-rule="evenodd" d="M40.4167 4.54217C38.1974 4.61598 35.9265 4.89878 33.6357 5.41051C18.4408 8.8048 9.10458 20.7664 10.8764 32.2458L8.79713 31.8992C7.19773 19.3282 17.5122 6.9647 33.1194 3.47831C35.2537 3.00155 37.3838 2.71382 39.4837 2.60258L40.4167 4.54217Z" fill="#ffffff"/>
<path d="M40.4167 4.54217L40.4522 5.03709L41.193 5.01245L40.8717 4.34445L40.4167 4.54217ZM10.8764 32.2458L10.8097 32.7339L11.4766 32.8451L11.3754 32.1893L10.8764 32.2458ZM8.79713 31.8992L8.29628 31.9427L8.34467 32.3231L8.73042 32.3874L8.79713 31.8992ZM33.1194 3.47831L32.9903 2.99526L33.1194 3.47831ZM39.4837 2.60258L39.9388 2.40486L39.7872 2.08961L39.4381 2.1081L39.4837 2.60258ZM40.3811 4.04726C38.13 4.12213 35.8278 4.40894 33.5066 4.92746L33.7648 5.89355C36.0252 5.38862 38.2647 5.10984 40.4522 5.03709L40.3811 4.04726ZM33.5066 4.92746C18.1417 8.35973 8.55559 20.4991 10.3774 32.3023L11.3754 32.1893C9.65357 21.0337 18.7399 9.24988 33.7648 5.89355L33.5066 4.92746ZM10.9431 31.7577L8.86384 31.4111L8.73042 32.3874L10.8097 32.7339L10.9431 31.7577ZM32.9903 2.99526C17.2165 6.51887 6.65641 19.0535 8.29628 31.9427L9.29797 31.8557C7.73905 19.6028 17.8079 7.41053 33.2485 3.96136L32.9903 2.99526ZM39.4381 2.1081C37.31 2.22083 35.1519 2.51239 32.9903 2.99526L33.2485 3.96136C35.3554 3.4907 37.4577 3.2068 39.5293 3.09706L39.4381 2.1081ZM39.0287 2.80031L39.9616 4.7399L40.8717 4.34445L39.9388 2.40486L39.0287 2.80031Z" fill="#ffffff"/>
</svg>