<svg xmlns="http://www.w3.org/2000/svg" width="134" height="58" viewBox="0 0 134 58" fill="none">
<path d="M67.5 36C67.5 42.2485 62.0102 47.5 55 47.5C47.9898 47.5 42.5 42.2485 42.5 36C42.5 29.7515 47.9898 24.5 55 24.5C62.0102 24.5 67.5 29.7515 67.5 36Z" stroke="#ffffff" stroke-width="3" fill="#355e35"/>
<path d="M110.5 36C110.5 42.2984 105.181 47.5 98.5 47.5C91.8187 47.5 86.5 42.2984 86.5 36C86.5 29.7016 91.8187 24.5 98.5 24.5C105.181 24.5 110.5 29.7016 110.5 36Z" stroke="#ffffff" stroke-width="3" fill="#355e35"/>
<path d="M55 31L62.625 16.5M81.75 2H70.25L62.625 16.5M62.625 16.5H93.5L98 31" stroke="#ffffff" stroke-width="3" stroke-linecap="round" fill="#355e35"/>
<path fill-rule="evenodd" clip-rule="evenodd" d="M47.594 17.7817C46.1935 17.7771 44.7609 17.9275 43.3204 18.2494C34.3874 20.2455 29.047 27.9635 30.4721 35.5168L28.3673 35.086C27.1745 26.6112 33.2915 18.4429 42.8039 16.3173C44.1047 16.0266 45.4063 15.863 46.6922 15.8176L47.594 17.7817Z" fill="#ffffff"/>
<path fill-rule="evenodd" clip-rule="evenodd" d="M44.8976 11.978C42.9936 12.0653 41.0422 12.3208 39.0749 12.7603C32.3807 14.2556 26.9254 17.5635 23.4901 21.6078C20.4114 25.2323 19.0203 29.3476 19.6026 33.3025L17.541 33.0306C16.4604 23.4257 25.3799 13.7719 38.5585 10.8281C40.3607 10.4255 42.1555 10.1678 43.9211 10.0459L44.8976 11.978Z" fill="#ffffff"/>
<path fill-rule="evenodd" clip-rule="evenodd" d="M40.4167 4.54217C38.1974 4.61598 35.9265 4.89878 33.6357 5.41051C18.4408 8.8048 9.10458 20.7664 10.8764 32.2458L8.79713 31.8992C7.19773 19.3282 17.5122 6.9647 33.1194 3.47831C35.2537 3.00155 37.3838 2.71382 39.4837 2.60258L40.4167 4.54217Z" fill="#ffffff"/>
</svg>